<svg xmlns="http://www.w3.org/2000/svg" viewBox="0 0 80.13 67.43">
  <title>multiple-users-silhouette</title>
  <path d="M48.35,17.92a14.55,14.55,0,0,1,6.78,10.82,11.75,11.75,0,1,0-6.78-10.82ZM40.66,42A11.75,11.75,0,1,0,28.9,30.23,11.75,11.75,0,0,0,40.66,42Zm5,.8h-10a15.07,15.07,0,0,0-15,15V70l0,.19.84.26A68.33,68.33,0,0,0,42,73.78c11.06,0,17.47-3.15,17.87-3.35l.78-.4h.08V57.83A15.06,15.06,0,0,0,45.64,42.78ZM65.08,30.65H55.19a14.5,14.5,0,0,1-4.47,10.09A17.88,17.88,0,0,1,63.49,57.85v3.76c9.77-.36,15.4-3.13,15.77-3.31l.79-.4h.08V45.7A15.07,15.07,0,0,0,65.08,30.65Zm-45-.8A11.69,11.69,0,0,0,26.28,28a14.61,14.61,0,0,1,5.47-9.28c0-.22,0-.44,0-.66A11.75,11.75,0,1,0,20,29.85ZM30.59,40.74a14.53,14.53,0,0,1-4.47-10c-.36,0-.73-.06-1.1-.06h-10A15.07,15.07,0,0,0,0,45.7V57.9l0,.18.84.27a70.24,70.24,0,0,0,17,3.18V57.85A17.88,17.88,0,0,1,30.59,40.74Z" transform="translate(0 -6.35)" style="fill: #aea512"/>
</svg>
