<svg xmlns="http://www.w3.org/2000/svg" viewBox="0 0 400.67 512">
  <title>quality</title>
  <path d="M226.93,400c-20,18.44-47.56,22.57-72.05,10.78a65.52,65.52,0,0,1-22.17-17.2L99.37,467.28a6.41,6.41,0,0,0,7.56,8.82l24.27-6.76a30.92,30.92,0,0,1,36.17,16.35l11,22.69a6.41,6.41,0,0,0,11.61-.15l53-117.3A39.75,39.75,0,0,0,226.93,400Z" transform="translate(-55.67 0)" style="fill: #aea512"/>
  <path d="M412.63,467.28l-33.34-73.75a65.52,65.52,0,0,1-22.17,17.2C332.63,422.52,305,418.39,285.07,400a39.75,39.75,0,0,0-16.05-9l53,117.3a6.42,6.42,0,0,0,11.62.15l11-22.69a30.92,30.92,0,0,1,36.17-16.35l24.27,6.76a6.42,6.42,0,0,0,7.56-8.82Z" transform="translate(-55.67 0)" style="fill: #aea512"/>
  <path d="M438.82,207.79a65.08,65.08,0,0,1-19.56-85.7c10.05-17.49,4.82-34.78-3.43-45.12S391.9,57.69,372.61,63.59a65.08,65.08,0,0,1-79.2-38.14C286,6.69,269.23,0,256,0s-30,6.69-37.41,25.45a65.08,65.08,0,0,1-79.2,38.14c-19.29-5.9-35,3-43.22,13.38s-13.48,27.63-3.43,45.12a65.08,65.08,0,0,1-19.56,85.7C56.53,219.19,53.75,237,56.69,249.93s13.19,27.76,33.14,30.81a65.08,65.08,0,0,1,54.81,68.72c-1.47,20.12,10.74,33.43,22.66,39.17s29.93,7,44.75-6.7a65.06,65.06,0,0,1,87.9,0c14.82,13.69,32.83,12.44,44.75,6.7s24.13-19.05,22.66-39.17a65.08,65.08,0,0,1,54.81-68.72c19.94-3.05,30.19-17.92,33.14-30.81S455.46,219.19,438.82,207.79ZM256,335.92c-72.57,0-131.62-59-131.62-131.62S183.42,72.68,256,72.68s131.62,59,131.62,131.62A131.76,131.76,0,0,1,256,335.92Z" transform="translate(-55.67 0)" style="fill: #aea512"/>
  <path d="M256,97.22A107.08,107.08,0,1,0,363.08,204.3,107.2,107.2,0,0,0,256,97.22Zm54.87,96.7L244.23,242.6A12.29,12.29,0,0,1,227,239.74L207,211.36a12.27,12.27,0,1,1,20.08-14.11l12.75,18.16L296.4,174.1a12.27,12.27,0,1,1,14.47,19.82Z" transform="translate(-55.67 0)" style="fill: #aea512"/>
</svg>
