<svg xmlns="http://www.w3.org/2000/svg" viewBox="0 0 42.52 66.67" class=::>
  <g>
    <path d="M95,37.91c0,.14-.17.16-.2.3C94.37,38.15,94.75,37.59,95,37.91Z" transform="translate(-68.43 -33.67)" style="fill: #fff;fill-rule: evenodd"/>
    <path d="M102.71,39.32c-.14.16-.49.1-.6.3.18.6-.24,1.26.4,1.3,0,.23-.29.11-.3.3-.55-.23-.3-1.59-.1-2C102.35,39.21,102.4,39.39,102.71,39.32Z" transform="translate(-68.43 -33.67)" style="fill: #fff;fill-rule: evenodd"/>
    <path d="M110.13,43.83c-.13,0-.14.13-.3.1-.17-.2.07-.59.4-.6C110.14,43.5,109.91,43.62,110.13,43.83Z" transform="translate(-68.43 -33.67)" style="fill: #fff;fill-rule: evenodd"/>
    <path d="M94.09,45.33a.47.47,0,0,1,.4.4C94.16,45.8,94.13,45.56,94.09,45.33Z" transform="translate(-68.43 -33.67)" style="fill: #fff;fill-rule: evenodd"/>
    <path d="M91.38,56.66a.44.44,0,0,1,.41-.2c0-.12,0-.29-.1-.3.2-.3.4.25.7.2,0,.32-.12.48-.4.5,0-.08,0-.2-.1-.2h-.51Z" transform="translate(-68.43 -33.67)" style="fill: #fff;fill-rule: evenodd"/>
    <path d="M97.1,56.16c.18-.21.57.22.8.3-.05.14-.15.25-.2.4-.25,0-.31.15-.4.3C97.2,56.79,97.41,56.53,97.1,56.16Z" transform="translate(-68.43 -33.67)" style="fill: #fff;fill-rule: evenodd"/>
    <path d="M93.19,63.67c.32,0,.26.63.2.7A1.32,1.32,0,0,1,93.19,63.67Z" transform="translate(-68.43 -33.67)" style="fill: #fff;fill-rule: evenodd"/>
    <path d="M99.1,63.67c.15.14.27.45.1.6S99,63.8,99.1,63.67Z" transform="translate(-68.43 -33.67)" style="fill: #fff;fill-rule: evenodd"/>
    <path d="M100,63.67c.18,0,.22.13.41.1-.06.15-.15.26-.2.4C100.06,64.09,100.06,63.85,100,63.67Z" transform="translate(-68.43 -33.67)" style="fill: #fff;fill-rule: evenodd"/>
    <path d="M102.71,65.48c.34-.11.16.31.2.5-.14,0-.28,0-.3.1C102.29,65.9,102.87,65.82,102.71,65.48Z" transform="translate(-68.43 -33.67)" style="fill: #fff;fill-rule: evenodd"/>
    <path d="M92.89,67c.24,0-.06-.46.3-.3,0,1.13,1.7,2,.7,2.91a.62.62,0,0,1-.5,0c0-.37.44-.23.6-.4-.2-.84-.43-1.64-1.2-1.91,0-.1.08-.12.1-.2Z" transform="translate(-68.43 -33.67)" style="fill: #fff;fill-rule: evenodd"/>
    <path d="M97.9,66.68c.15.67-.63.24-.6.3C97,66.72,97.77,66.79,97.9,66.68Z" transform="translate(-68.43 -33.67)" style="fill: #fff;fill-rule: evenodd"/>
    <path d="M99,68.18c0-.13.25-.08.4-.1a1,1,0,0,0-.2,1C98.65,69.07,99.33,68.28,99,68.18Z" transform="translate(-68.43 -33.67)" style="fill: #fff;fill-rule: evenodd"/>
    <path d="M101.51,69.09c0-.12.18-.09.3-.11.08.35-.15.39-.1.71C101.27,69.66,101.76,69.16,101.51,69.09Z" transform="translate(-68.43 -33.67)" style="fill: #fff;fill-rule: evenodd"/>
    <path d="M98.1,69.79a.5.5,0,0,1-.5.6C97.67,70.16,97.65,69.85,98.1,69.79Z" transform="translate(-68.43 -33.67)" style="fill: #fff;fill-rule: evenodd"/>
    <path d="M97,73.39c0-.17.17-.22.4-.2-.1-.31-.76-.57-.6-.8h.1c.45.31,1.62.73.9,1.31-.1,0-.12-.09-.2-.1a.65.65,0,0,0-.3-.21Z" transform="translate(-68.43 -33.67)" style="fill: #fff;fill-rule: evenodd"/>
    <path d="M98.9,74.5c0,.09-.09.18-.2.2,0,.18.12.21.1.4C98.36,75.08,98.52,74.48,98.9,74.5Z" transform="translate(-68.43 -33.67)" style="fill: #fff;fill-rule: evenodd"/>
    <path d="M98.5,78.31c.45,0,.32.77.1,1,.34.4.19,1.07.2,1.9-.67,0-.5-.95-.1-.9C98.16,79.82,98.62,79.3,98.5,78.31Z" transform="translate(-68.43 -33.67)" style="fill: #fff;fill-rule: evenodd"/>
    <path d="M105.12,80a6.63,6.63,0,0,1,.4.8c-.18.44-.61.69-.9.5C104.8,80.89,105.29,80.79,105.12,80Z" transform="translate(-68.43 -33.67)" style="fill: #fff;fill-rule: evenodd"/>
    <path d="M99.6,81.61c.64.2.75.93,1.31,1.21-.43.26-.78-.74-1.31-.4C99.69,82,99.44,81.78,99.6,81.61Z" transform="translate(-68.43 -33.67)" style="fill: #fff;fill-rule: evenodd"/>
    <path d="M100,82.92c.38.58.27,1.11.41,2C99.91,84.45,100,83.73,100,82.92Z" transform="translate(-68.43 -33.67)" style="fill: #fff;fill-rule: evenodd"/>
    <path d="M101.51,84.42a.54.54,0,0,1,.5.6C101.71,85,101.33,84.65,101.51,84.42Z" transform="translate(-68.43 -33.67)" style="fill: #fff;fill-rule: evenodd"/>
    <path d="M100.51,85.62a.65.65,0,0,1-.51.1c.16-.14.09-.51.1-.8A1.26,1.26,0,0,1,100.51,85.62Z" transform="translate(-68.43 -33.67)" style="fill: #fff;fill-rule: evenodd"/>
    <path d="M99.7,85.82c-.18.33-.54,0-.9.3C98.91,85.83,99.28,85.8,99.7,85.82Z" transform="translate(-68.43 -33.67)" style="fill: #fff;fill-rule: evenodd"/>
    <path d="M104.41,81.71c0-.2-.27-.12-.2-.4v-.1c.17-.06.07-.23-.1-.2,0-.25.34,0,.4,0,.45-.35.44-2.12.11-2.6-.47-.1-.42.32-.61.5h-.2c0-.53-.1-.6,0-1,.14,0,.09.25.1.4.33,0,.5-.17.91-.1.08.21.3.29.3.6a1.31,1.31,0,0,0-.2,1m.7-.6c-.1.23-.05.28-.3.5m-.7,1.6c.29.19.72-.06.9-.5a6.63,6.63,0,0,0-.4-.8C105.29,80.79,104.8,80.89,104.62,81.31Z" transform="translate(-68.43 -33.67)" style="fill: #fff;fill-rule: evenodd"/>
    <path d="M103.91,75.4a.28.28,0,0,1,.3-.2c0-.27-.56.09-.4-.3.29-.15.22-.65.5-.8.33.17-.26.26-.1.6,0,.13.25.08.41.1.07.37-.39.22-.41.5s.52.29.41.8c-.32.05-.36-.18-.71-.1-.31.51.11,1.41-.1,1.6a5,5,0,0,1-.2-1.8c.21,0,.27.07.4.1-.26-.17.17-.35.1,0C104.39,75.77,104,75.5,103.91,75.4Z" transform="translate(-68.43 -33.67)" style="fill: #fff;fill-rule: evenodd"/>
    <path d="M103,72.39v-.8c.38,0,.47.2.7.3.3-.09-.3-.08-.1-.4a.54.54,0,0,1,.3-.1c.08,0,.1-.1.2-.1-.17.3,0,.51-.1.7-.26,0-.57,0-.7.1-.12.69.35,1.47,0,2,0,.23.29.11.3.3.22,0,.22-.26.2-.5h.5V74c-.48.08-.45.68-.8.9-.32-.18-.13-.87-.4-1.11V73.7C103.05,73.29,103.24,72.63,103,72.39Z" transform="translate(-68.43 -33.67)" style="fill: #fff;fill-rule: evenodd"/>
    <path d="M103.21,68.88c.17-.76.79-1.07,1.1-1.7a.79.79,0,0,1,.2.6c.28-.09.23-.5.31-.8h.3c0,.09.08.18.2.2a.44.44,0,0,1,.2-.7c.31,1.06-.94.47-.81,1.4a.43.43,0,0,1-.4-.2,4.08,4.08,0,0,0-1.1,2.11c.22.34.75.38,1,.7a.85.85,0,0,0,0,.7h-.1c-.26-.12-.31-.09-.2-.4,0-.15-.12,0-.3,0,0-.13.18-.16.2-.3-.19-.06-.78.34-.9.7A20.45,20.45,0,0,0,103.21,68.88Z" transform="translate(-68.43 -33.67)" style="fill: #fff;fill-rule: evenodd"/>
    <path d="M106.82,61.17h.2c0,.31.27.26.3.5-.37-.35-.45.21-.6.4C106.64,61.66,106.87,61.55,106.82,61.17Z" transform="translate(-68.43 -33.67)" style="fill: #fff;fill-rule: evenodd"/>
    <path d="M105.32,79.71c.25-.22.2-.27.3-.5m-1.81,2.5c.18,0,.21.13.4.1s-.29-.41,0-.5c-.07.28.2.2.2.4M97.9,86.93a1,1,0,0,1,.3-.81c.08,0,.1-.1.2-.1-.06-.84-.38-1.42-.4-2.3.61.35.52-1.15.5-1.3a.51.51,0,0,1-.3.1c-.21-1.59,0-2.31-.2-4.41-.4,0-.48.25-.6.5-.28-.07.28-.53-.3-.4a.32.32,0,0,1,.2-.21c.1.4.46,0,.6-.09-.26,0-.08-.39-.4-.31s-.25-.35-.4-.5c.19-.07.92.3,1.1-.2-.13-.74-.07-2.17-.2-3.2-.22-.06-.14.19-.3.2,0-.49-.75.17-.5.2,0,.06,0,.11-.1.1-.43-.07.29-.52.5-.6s.1.1.2.1c.72-.58-.45-1-.9-1.31.38.09.64.3,1,.4a1.61,1.61,0,0,0-1.7-2.4c0-.28.16-.2,0-.4-.21.1-.51.35-.51-.1-.37,0-.58.25-.6.4,0-.2-.27-.13-.2-.4s.08-.53.2-.7h-.2c.8,0,2.76,1.86,3.11,0,0-.26-.39-.15-.4-.41.05.53-1,.18-1.5.1,0-.24.18-.21.1-.5-.17.17-.42.25-.41.6a1.46,1.46,0,0,0-1-.9c-.06-.6-.48-.85-.9-1.1-.23.76,1.28,1.8.4,2.11.17.34,0,.3-.2.5h-.2c1-1-.66-1.78-.7-2.91-.36-.16-.06.34-.3.3,0-.41.11-.82.4-1,0,.13.31.23.1.5.12-.11.21-.09.2.1.35-.37-.35-.54.1-.8-.35-.06-.14-.66-.5-.7,0,.11-.16.57.1.7-.17.33-.79.19-1,0v-.1c.13.1.37.1.5.2a10.59,10.59,0,0,0-.2-3.31c-.14.1-.38.09-.4.3-.1,0-.12.08-.2.1a3.06,3.06,0,0,0,.7-.9c-.06-.21-.45-.62-.6-.4H92c.07-.28-.2-.2-.2-.4-.15-.49.51.37.8.4.57-.91-.26-2.1.2-2.81a.79.79,0,0,0-.3-.2c0-.18.17-.23.4-.2,0-.14-.25-.08-.4-.1,0-.38-.11-1.15-.1-1.6-.15.15-.43.18-.5.4-.3-.09.13-.25,0-.5.09,0,.07.12.1.2.28,0,.42-.18.4-.5-.3,0-.5-.5-.7-.2.11,0,.08.18.1.3a.44.44,0,0,0-.41.2c.07-.14.51-.64,0-1,.42.09.45.56,1,.51-.12-.89.86-3.54.5-3.91-.12-.12-.3.07-.4,0,.49-.41,0-.85-.2-1.21-.1,0-.08.13-.1.2-.21,0-.1-.37-.3-.4v-.1c.52,0,.39.68.9.7.25,0-.1-.7.4-.5.07-.3-.28-.19-.2-.5.49-.45.43-1,.8-1.7C96,47.86,96,50.35,96.1,52.05c-.35.21-.08,1,0,1.6.28.08.26-.14.5-.1a7.18,7.18,0,0,1-.5,1c-.36,2.26.59,5.65.4,8.32a2.58,2.58,0,0,0,1.2,2.31c.09,0,.1.15.1.3a4.49,4.49,0,0,0,.2-2.11c-.18-.19-.29.12-.5-.1v-.4c.15.05.25.15.4.2.35-.57,0-.83.1-1.7-.29.07-.19.54-.6.5-.05-.32.14-.39.2-.6.25.07-.19.26-.1.5a2.84,2.84,0,0,1,.6-.6,1.76,1.76,0,0,0-.9-.6c-.11,0-.07-.2-.2-.21.35-.31.46.47.9.41a10.47,10.47,0,0,0-.2-3.91c0-.15.15-.26.2-.4-.23-.08-.62-.51-.8-.3-.32-.57.43.06.7.1a11.63,11.63,0,0,0,0-4.31c-.42-.09-.47.19-.8.2-.17-.49.62-.27.3-.61.33.1.09.23,0,.41.77-.17.82-.53,0-.51-.08,0-.1-.1-.2-.1v-.1c-.25-.38.24-.07.5-.1-.13-.43-.09-.3.2-.4.11-1-.31-1.8.1-2.4a2.42,2.42,0,0,0-2.11-.3c-.14-.09-.31-.15-.3-.4-.09,0-.07.12-.1.2-.51-.46-.93-1-1.4-1.51-.27.26-.34.73-.7.91v-.11c.19-.14.18-.48.3-.7.34,0,.3-.37.3-.7-.26.22-.57-.09-.7.1.59.12-.43.4.1.4v.1h-.2c-.59.07,0-.32.2-.3-.09-.21-.31-.29-.3-.6.18.09.25.28.6.2-.22-.91,0-2-.3-2.9-.05-.15-.36-.33-.4-.51-.12-.53.34-1.62-.1-2,.15-.53-.27-.86-.1-1.1-.26.11-.48-.31-.6,0-.37-.26-.45.2-.71,0V39c.15-.12.45-.09.41-.4a.1.1,0,0,1,0,.2,1.48,1.48,0,0,0,.7,0c0-.69-.7-.64-1-1-.06-.22.65.38.9.5.58-.45.31-2.19.5-3.1a1.66,1.66,0,0,1,.4-1.1,1.07,1.07,0,0,1,1.2-.41c.5,0,1,.39,1.51.91.31,0,.5-.55.7-.3a.29.29,0,0,1-.2.3c0-.08.1-.1.1-.2-.34,0-.44.3-.6.5a.51.51,0,0,1,.1.3.68.68,0,0,0,.5-.1,1.36,1.36,0,0,0,.3.7c-.15-.05-.26-.15-.4-.2-.82-.77-.46,1.27-.4,1.8.17,0,.58-.27.7,0-.13,0-.14.13-.3.1-.1-.24-.39.14-.71,0a4.92,4.92,0,0,0-1-2.5c0,.24.46-.06.3.3-.42-.21,0,.17,0,.4-.14-.14-.31-.08-.3.2s.15-.23.4-.1c0,.77,0,.95-.4,1.3.24.15.37.15.2.5.16,0,.09-.31.4-.2-.4.54,0,1-.3,1.51-.25,0-.12-.08-.1-.2-.46,0-.17.69-.4.9.09.29.25-.13.5,0,.11.74-.37.9-.5,1.4,0,.21.27-.14.4.1a5.65,5.65,0,0,0,1.31,4.41c-.06.21-.16.21-.3.1a.59.59,0,0,0,.1.5c.72-.73,1.15.13,1.7-.7a3.41,3.41,0,0,1-2.21-3.81h.2c0,.1.13.08.21.1v.1c-.6.31.06,1.39.3,1.81,0-.25.08-.52.4-.5v.4c.29.11.37-.48.5-.2,0,.4-.56.63,0,.8,0,.37-.63,0-.7.3.52.28.83.77,1.6.8.19-1.31-.1-3.11.4-4.11-.18,0-.23-.1-.2-.3a3.39,3.39,0,0,0-.8.5h-.1c0-.3.39-.28.4-.6h-.5c.11-.09,0-.37.3-.3v-.2c.24,0,0,.33-.1.3,0,.22.35,0,.5.1-.36.58.09.34.2-.1a.8.8,0,0,0-.9-.5c-.09,0-.1,0-.1-.1.32-.31.56.3,1,.2,0-.37-.08-.89.1-1.1-.17-.24-.55-.25-.7-.5.55.28.67-.64.7-1.21-.39.07-.36,0-.6.1,0-.11.11-.15.2-.2a.64.64,0,0,0,.5-.1.92.92,0,0,0-.5-.8c0-.28-.18-.42-.2-.7.36.31.42.92.8,1.2.12-.52-.4-.4-.3-.9.36.46.5-.23.8-.4.35.43.63-.48,1.21-.3,0-.16.08,0,.1.2.39.06.45-.28.4-.2.34,0,.48.25.9.2-.2.24.25.48.3.8-.38-.12-.24-.76-.8-.7a2.24,2.24,0,0,1,.6,1.2c-.18.22-.08-.69-.5-.3.35-.44-.49-.17,0-.4-.09-.27-.32.14-.6,0,.12-.13,0-.16,0-.3-.33,0-.44.29-.61.5.69.07.47.94.91,1.3,0,.19-.33.07-.3.3.46.09,0,.51.4.6-.38,2,.22,4.44-.3,5.92.47,1.57-.39,2.48.4,4-.27,0-.74,1-.8,1.1.17.32.46.12.8.1-.71.21.45.84-.3,1,.37.13.46.54.8.7.52-1.31-.21-2.79-.1-4.11,0,0,.15.12.1.21.19-.32,0-1.43.3-1.91.23,0,.38.16.7.1v.1c-.28-.08-.26.14-.5.1a34.49,34.49,0,0,0,0,7.62c.21.16.66.07.9.2a5.23,5.23,0,0,0,.1-1.8H103v-.1a1.93,1.93,0,0,0-.1-1.51V50c-.1-.22-.46.13-.8,0,0-.2.27-.19.3-.4.1,0,.08.12.1.2.18-.06.59.12.6-.1-.36.08-.19-.34.1-.2-.26-.55-.42,0-.9-.3-.17.2,0,.13,0,.4-.38-.23-.06-.83.1-1.1.23.07.22.38.5.4.38-1.07.06-2.83.4-4.11.26-.94,1.09-1.13,1.1-1.8v-.1a.45.45,0,0,0-.1-.31c.38.15.2-.27.51-.2,0,.12,0,.29.1.31.08-.26.38-.63.2-.11v.11c-.12,0-.09.18-.1.3a1.25,1.25,0,0,0,.9.3q-.09.39.3.3a29.66,29.66,0,0,1,.4,4.51c1-1.13.58-3.86.6-5.11v-.1c.1,0,.08-.13.1-.2s.08.12.1.2c.31-.33.78-.58.9-.81s-.44,0-.4-.3c-.2,0-.19.27-.4.3a.28.28,0,0,0,.2.3c0,.15-.3,0-.3.2-.1,0-.08-.12-.1-.2s.12-.16,0-.3c.07-.6.91-.6.7-1.2.21,0,.2.27.4.3v-.7c.11-.31.1.28.2.3s.37,0,.41.1c-.11,0-.12.08-.21.1s-.14-.19-.3-.2c.13.65-.6.38-.3.9,0-.23.44-.06.5,0v-.1c.3.08.26.48.71.4-.28.58.29.91.2,1.61.27-.07.25-.42.6-.4.11,0,0,.1,0,.1-.33,0-.57.4-.4.6.16,0,.17-.1.3-.1,0,.23-.27.23-.4.1-.39.51-.09,1.93-.2,2.6.37,0,.42-.37.8-.4v.1c0,.13-.13.14-.1.3-.13,0-.16.18-.3.2,0-.13.17-.15.2-.3s-.35.24-.5.3c-.5-1,0-3.17-.4-4.31a3.45,3.45,0,0,0-.51-.5,4.55,4.55,0,0,0,.2,1.81,21.37,21.37,0,0,1-.1,3c.29,0,.13-.47.51-.4a4.26,4.26,0,0,0-.71,2.61c-.44,0-.7.81-1.3,1,0,.21.2.27.3.4.29-.08.12-.61.3-.8.28.1-.14.27.1.4a.45.45,0,0,0,.3-.3c.34.23-.5.43,0,.6-.47,0-.65.22-1,.3a.37.37,0,0,0-.5,0,.1.1,0,0,0,.2,0,9.93,9.93,0,0,0,.1,2.41v.1c.06.14-.12.52.1.5s.53-.66.7-.5c-.1.13-.09.37-.3.4s-.48.12-.4.5c-.27.07-.2-.2-.4-.2,0-.53.19-1.39-.1-1.3s0-.28.2-.2c-.18-.26.11-.49-.2-.71-.2.07-.23.31-.4.41.28.71.14.91-.1,1.7,0,.26.17-.14.4,0-.64.2.17.94-.6,1,.59.41,0,.94.2,1.41.27-.1.43-.31.7-.41-.07-.3-.21.1-.4,0,.16-.14.35-.51-.1-.5,0-.25.34,0,.4,0,.1-.26,0-.65.1-1.1.26.16.09.36.5.5v.1h-.1c0-.09-.09-.18-.2-.2a15.56,15.56,0,0,1-.1,1.91c.2.14.35-.11.5.2,0-.21.27-.2.4-.3v.3h-.1c0-.18-.39.2-.6.2-.37-.07-.59-.35-.4-.7-.28-.09-.26.14-.5.1.05.63-.41,2.1.4,2.2-.09.34-.19,0-.5.1,0,.12.18.09.3.1,0,.23-.27.23-.4.1a.51.51,0,0,1,.1.3c.26-.14.31-.32.2.1.32.13.08-.32.4-.2-.38-.23.31-.85-.2-1.1.08-.23.8-.33.8-.3-.17,0,.2.33.3.4s0,.2-.1.2V58c-.35-.15-.2-.5-.7-.3,0,1,0,1.53,0,2.4.45.12.4-.26.7-.3.06.24-.51.35-.2.5.07-.14.46-.46.5-.3s-.11.16-.2.2a1.12,1.12,0,0,0-.7.51c-.39-.2.07-.93-.5-.91a1.68,1.68,0,0,1,.3-.4c0-.08-.1-.1-.1-.2-.49.3-.18.07-.6-.1.06.57.61.79.2,1.3.09.21.39.21.4.51-.44.06-.31-.43-.6-.51-.31.1.11.28.2.31-.07.3-.22-.1-.4,0,.36.15,0,.55.2.9-.33.06-.47-.07-.7-.1.34.3,0,.16-.2.6,0,.24.45-.06.3.3-.2.17-.13,0-.4,0,.09.18.4.13.3.5.24.1.29.37.7.3-.07.08-.16.28,0,.3-.29,0-.65-.74-1.2-.3.34.52-.55.92-.3,1.3-.69.17-.74,1-1.41,1,0,.72.46.36.7.6-.07.16-.73.65-.5.2-.12,0-.34.29-.1.3.24.26-.48-.08-.1-.3h-.5c.07.1.23.1.2.3-.38-.13-.67-.31-1,0,.09.21,0,.6.4.5-.26.56-.66.46-1.3.5a1,1,0,0,1,.8-.2c-1.61-.69-.42,2.12-.3,3a2.71,2.71,0,0,1-.3.8c0,.38.29.44.6.5-1,.24-.28,2-.4,2.71a2,2,0,0,1,1.1-.7c.31.26-1.51.57-.6.8-.1.16-.43.11-.6.2.28.28-.19.32-.2.6s.17.23.4.2c0,.52.17.75-.3.9.24.19.36.25.1.5a1.11,1.11,0,0,0,1,.2c-.13.43-.54,0-.9.1l.3.3c-.09.15-.32.15-.5.2,0,.18.17.26,0,.3,0,.26.17-.13.4,0-.52,1.19.22,1.94-.2,3.11-.35,0-.65-.4-.9-.2.06.21.5,0,.4.4.36.09.53-.17.7,0-.33.2,0,.16,0,.5a.4.4,0,0,1-.3.1c-.4.86.08,1.56,0,2.21-.07.48-.59.87-.7,1.3a13.82,13.82,0,0,0-.1,1.71m2.3-32.78c.09-.15.32-.14.5-.2,0-.38-.39-.48-.7-.6.2.4.21.48-.1.5C102.74,54,102.62,54.34,102.81,54.35Zm-.6-.7c.16,1-.41,2.19.1,2.91,0-.21.44,0,.5-.2a5.9,5.9,0,0,0,.2-1.91c-.24-.34-.44.48-.6.2A.75.75,0,0,0,102.21,53.65Zm-.1,4.71c-.34-.27-.21-1.35.5-1.4,0-.28-.17-.2,0-.4-.35-.06-.44.16-.6.3,0-1.68-.16-2.79-.2-5.21-.34-.09-.73-.89-1-.41.52.13.1.17,0,.2.4.49.12.62.4,1.31h-.5a2.36,2.36,0,0,1-.3,1.2c.07.16.31.15.3.4-.58,0,0,.09,0,.3s-.56,0-.61.2c.62.08.7.71,1,1.11-.21.21-.33-.09-.5.1.13.59-.16.78-.3,1.1.39.14.78,1.31.9.8.14.3-.06.36.3.5a.51.51,0,0,0-.3.1c0-.31-.22-.32-.5-.3-.21.38.19.86-.3,1.1.08.25.31.35.5.5a.73.73,0,0,1-.7.2c0,.32.18.36.1.71.11.14.37.15.5.3a3.15,3.15,0,0,1-.5.3v.5c.58-.08.2.58,0,.6.21.42.28.83,1.3.6-.17-.38.76-.41.2-1.1.53,0,.21-.79.3-1.2a.51.51,0,0,0,.3-.1v.2c.21,0,.57-.81.2-.51,0-.55.53-.54.6-1a3.53,3.53,0,0,1-1-1c.13,0,.19.14.4.1,0-.2.14-.2.2-.3-.35-.51,0-.75-.7-.7Zm-4.51,12a.5.5,0,0,0,.5-.6C97.65,69.85,97.67,70.16,97.6,70.39ZM94.49,45.73a.47.47,0,0,0-.4-.4C94.13,45.56,94.16,45.8,94.49,45.73Zm11.23.1a5.73,5.73,0,0,0,.2,3c.55-1,.37-1.89.4-3.11A.89.89,0,0,0,105.72,45.83Zm-9.72,8a4.65,4.65,0,0,1-.31-.6c-.36-1.58.69-5-1.8-4.31v.5h.8c.14.39.08.39.2.7.15-.12.25-.29.5-.3,0,.21-.26.2-.4.3.25.89-.32,2.23.2,2.51-.24.25.22.68-.2.7.43.32-.25,1.14.2,1.2a10.72,10.72,0,0,0-.3,2.71c.12,0,.29,0,.3.1a24.29,24.29,0,0,0,.2,3.81c-.31-.17-.48.37-.3.1.12,0,.29,0,.3.1-.5.73.34,1.58-.4,2.2.55-.27.22.33.91.3a.46.46,0,0,0,.1-.6c.19,0,.12.27.4.2,0-2.5-.67-5.8-.61-9.22a.54.54,0,0,0,.31-.3C95.57,54.15,96,53.86,96,53.85Zm-.1,10.82c-.25,0-.32.19-.51,0-.14.38.28.2.2.51.2,0,.2-.14.31-.2.27.6.69.46.8,1,.18.08.4.13.5.3,0-.15,0-.37.1-.4s.11.15.2.2c-.07-.56.37-.21.4,0a.51.51,0,0,1,.1-.3c-1-.1-1.14-1.27-1.7-1.61.13,0,.12.28,0,.3s-.18-.09-.2-.2a.55.55,0,0,1,.1-.4C95.6,63.87,96,64.22,95.9,64.67Zm7.61-12.12a8.74,8.74,0,0,0-.1-3.71A14.32,14.32,0,0,0,103.51,52.55Zm2-2c0-.1.08-.12.1-.2-.41,0-.37.7-.1.8-.16-.35.34-.06.3-.3-.19,0,.06-.16-.1-.2C105.69,50.8,105.55,50.66,105.52,50.54Zm-.5,1.81c0-.27.77-.62.3-.7C105.4,52,104.7,52.08,105,52.35ZM99.2,69.09a1,1,0,0,1,.2-1c-.15,0-.37,0-.4.1C99.33,68.28,98.65,69.07,99.2,69.09Zm-.6,3.8c0-.4.18-.81-.1-1.2C98.38,72.11,98.3,72.69,98.6,72.89Zm.3.81c-.28-.14-.6.18-.3.3,0-.08,0-.2.1-.21s.3.41.4.11c-.25,0,0-.34,0-.41-.47,0,.1-.78-.2-.6A.79.79,0,0,0,98.9,73.7Zm-.4.4c-.11.55.62.25.6,0M98.7,76c.3.1.18-.22.2-.4h-.3A.55.55,0,0,0,98.7,76Zm2.21,1.8c-.46-.16.11-.21.2-.4-.08,0-.2,0-.2-.1s0-.19-.1-.2C100.62,77.29,100.48,78.11,100.91,77.8Zm-1.81,0a.28.28,0,0,1-.2-.3c-.27,0-.2.17-.4,0,.06.21-.12.66.1.71s.2-.34.4-.41C99,77.86,99.08,77.92,99.1,77.8Zm6.42,2M102,85a.54.54,0,0,0-.5-.6C101.33,84.65,101.71,85,102,85ZM96.4,43.43c0,.32-.23.44-.2.8a1.25,1.25,0,0,0,.9-.1c-.71,0,.16-.59-.1-.7C96.88,43.84,96.61,43.48,96.4,43.43Z" transform="translate(-68.43 -33.67)" style="fill: #fff;fill-rule: evenodd"/>
    <path d="M92.09,39.12c.12-.31.34.11.6,0-.17.24.25.57.1,1.1.44.38,0,1.47.1,2,0,.18.35.36.4.51.31,1,.08,2,.3,2.9-.35.08-.42-.11-.6-.2,0,.31.21.39.3.6-.25,0-.79.37-.2.3-.1.28-.47,0-.5-.1,0-.31.49,0,.4-.4s-1-.58-.6-1.2a7,7,0,0,0,.9.6c.08-.68-.3-.9-.3-1.5-.36,0-.48-.16-.8,0,0-.45-.25-.56-.4-.8.47-.29.13-.47.1-1,.19,0,.12-.27.4-.2s0,.65.4.6C92.74,41,92.74,39.74,92.09,39.12Zm.4,3.91v.1c.11,0,.11.15.1.3.42.12.27-.34.5-.4,0,0,.08.11.1,0-.23-.15-.19-.29,0-.41a.26.26,0,0,1-.2-.3c-.39.41-.68-.08-1-.3.06.37.38.49.5.81a.57.57,0,0,0-.3.2Z" transform="translate(-68.43 -33.67)" style="fill: #fff;fill-rule: evenodd"/>
    <path d="M93.29,46.33v-.1c.27,0,.52,0,.3.2s-.11.56-.3.7c-.21-.09.19-.4.1-.7C93.33,46.43,93.27,46.42,93.29,46.33Z" transform="translate(-68.43 -33.67)" style="fill: #fff;fill-rule: evenodd"/>
    <path d="M94.09,69.59c.16,0,.17.09.3.1,0,.19-.21.25-.2.5s.15.15,0,.2C93.93,70.17,94.27,69.72,94.09,69.59Z" transform="translate(-68.43 -33.67)" style="fill: #fff;fill-rule: evenodd"/>
    <path d="M95.09,70.29c0-.15.23-.36.6-.4,0,.45.3.2.51.1.16.2,0,.12,0,.4a1.61,1.61,0,0,1,1.7,2.4c-.36-.1-.62-.31-1-.4h-.1c-.06-.23-.48-.06-.2.1a.26.26,0,0,1-.2-.3c.67-.14.81.26,1.3.3a4.1,4.1,0,0,0-.1-1.7c-.91.07-1.72-.7-2.31-.2C95.27,70.45,95.13,70.42,95.09,70.29Z" transform="translate(-68.43 -33.67)" style="fill: #fff;fill-rule: evenodd"/>
    <path d="M97.3,51.54v-.1c.82,0,.77.34,0,.51C97.39,51.77,97.63,51.64,97.3,51.54Z" transform="translate(-68.43 -33.67)" style="fill: #fff;fill-rule: evenodd"/>
    <path d="M102.31,35.81c0-.08.08-.12.2-.1v.2c-.17,0-.06.28-.2.3s-.08.39-.4.3v-.2C102.22,36.32,102.25,36.05,102.31,35.81Z" transform="translate(-68.43 -33.67)" style="fill: #fff;fill-rule: evenodd"/>
    <path d="M96.2,40.52a2.78,2.78,0,0,1-.71.7,27,27,0,0,1,.2-3c.23.14.38-.25.41,0a3.84,3.84,0,0,0-.31,2.71A.93.93,0,0,1,96.2,40.52Z" transform="translate(-68.43 -33.67)" style="fill: #fff;fill-rule: evenodd"/>
    <path d="M96.3,40.52c.07,0,.19,0,.2.1s-.28.39-.4.6c.4.12.12.34.3.6h-.1C95.74,41.35,96.34,40.86,96.3,40.52Z" transform="translate(-68.43 -33.67)" style="fill: #fff;fill-rule: evenodd"/>
    <path d="M96.5,34.61c0,.2-.27.19-.3.4a1.8,1.8,0,0,0,.7-.2.55.55,0,0,1-.3.3.68.68,0,0,1-.5.1.51.51,0,0,0-.1-.3c.16-.2.26-.47.6-.5C96.6,34.51,96.52,34.53,96.5,34.61Z" transform="translate(-68.43 -33.67)" style="fill: #fff;fill-rule: evenodd"/>
    <path d="M97.6,36.71c0-.24.46.06.3-.3.33.15-.17.28-.2.4a.72.72,0,0,1,.2.3C97.75,37,97.58,37,97.6,36.71Z" transform="translate(-68.43 -33.67)" style="fill: #fff;fill-rule: evenodd"/>
    <path d="M102.31,36.41a1.32,1.32,0,0,1,.7.2c-.27-.07-.2.2-.4.2,0-.1.08-.12.1-.2C102.53,36.59,102.21,36.71,102.31,36.41Z" transform="translate(-68.43 -33.67)" style="fill: #fff;fill-rule: evenodd"/>
    <path d="M102.51,36.81c0,.2.14.2.2.3-.28.08-.26-.14-.5-.1-.27.32.08.67,0,1.1.39.24.31-.18.7-.2V38c0,.26-.15.32-.3.4,0-.13.41-.3.1-.4a1.12,1.12,0,0,1-.7.51,14.35,14.35,0,0,0-.1-1.51C102.22,37.06,102.3,36.87,102.51,36.81Z" transform="translate(-68.43 -33.67)" style="fill: #fff;fill-rule: evenodd"/>
    <path d="M102.71,41.82c0-.1.08-.12.1-.2-.28-.24-.61.14-.8-.1.5.1.35-.45.7-.5-.15.24-.21.19-.1.5C103,41.3,103.08,41.71,102.71,41.82Z" transform="translate(-68.43 -33.67)" style="fill: #fff;fill-rule: evenodd"/>
    <path d="M102.51,41.82c0,.27-.14.33-.4.3,0,.85-.21,2.32.2,2.31-.09.15-.15.32-.4.3-.12-.36,0-1.15-.3-1.6.48-.21,0-1,.4-1.11C102.33,42.11,102.39,41.94,102.51,41.82Z" transform="translate(-68.43 -33.67)" style="fill: #fff;fill-rule: evenodd"/>
    <path d="M102.71,45.63c.05-.11-.22-.55.2-.7-.18-.06-.41,0-.5-.2.15-.09.32-.15.3-.4a.45.45,0,0,0-.3.1c0-.14.39-.39.4-.2s-.16.31-.2.5a.43.43,0,0,1,.4.2c0,.24-.35.19-.3.5.12,0,.29,0,.3.1s-.11.16-.2.2h-.1Z" transform="translate(-68.43 -33.67)" style="fill: #fff;fill-rule: evenodd"/>
    <path d="M109.73,47.54c.1,0,.12.08.2.1-.18-.37,0-.3.1-.61-.12,0-.29,0-.3-.1s.15-.11.2-.2.17-.16.3-.2c.36.5-.1.6.1,1.21-.19.18-.18-.06-.5,0-.08.42-.4,1-.1,1.5h-.5c-.11.51.38.42.6.6-.36,0-.64.65-.8.2a.51.51,0,0,1,.3-.1,1.81,1.81,0,0,0-.41-.3c0-.08.11-.1.11-.2v-.1C109.63,49.11,109.29,47.93,109.73,47.54Z" transform="translate(-68.43 -33.67)" style="fill: #fff;fill-rule: evenodd"/>
    <path d="M107.22,61.07c.15,0,.37,0,.4-.1q-.33,0-.3-.3c.81-.38.39.78.1,1C107.59,61.29,107,61.21,107.22,61.07Z" transform="translate(-68.43 -33.67)" style="fill: #fff;fill-rule: evenodd"/>
    <path d="M107,61.17c0-.11.17-.24.2-.1-.26.14.37.22.2.6h-.1C107.29,61.43,107,61.48,107,61.17Z" transform="translate(-68.43 -33.67)" style="fill: #fff;fill-rule: evenodd"/>
    <path d="M106.82,61.17c.05.38-.18.49-.1.9v.1c-.27-.07.07.47-.2.4,0-.44.24-1.4.1-1.6C106.73,61,106.78,61.08,106.82,61.17Z" transform="translate(-68.43 -33.67)" style="fill: #fff;fill-rule: evenodd"/>
    <path d="M106.42,63.47c.12.27.52,0,.7,0,0,.08-.1.1-.1.2-.28,0-.42.19-.7.2C106.45,63.62,106.27,63.56,106.42,63.47Z" transform="translate(-68.43 -33.67)" style="fill: #fff;fill-rule: evenodd"/>
    <path d="M106.32,64.88h.3c0-.36-.34-.33-.4-.61.19-.28.83-.1.8-.6,0-.1.08-.12.1-.2-.18,0-.58.27-.7,0s.12-.46.1-.9c.27.07-.07-.47.2-.4s-.09.5,0,.9c.13.14.49,0,.5.3s-.15.48,0,.8c-.13.11-.37.1-.5.2.16.55-.14.71-.4,1-.1-.17-.32-.22-.5-.3-.07.4-.38.56-.4,1,.15.14.81-.14.9.3h-.5c-.17-.33-.55.18-.7-.1.07-.63.55-.85.7-1.4C106,64.82,106.23,65.17,106.32,64.88Z" transform="translate(-68.43 -33.67)" style="fill: #fff;fill-rule: evenodd"/>
    <path d="M106.32,64.88c-.09.29-.32-.06-.5,0-.15.55-.63.77-.7,1.4.15.28.53-.23.7.1a.45.45,0,0,0-.3.1.44.44,0,0,0-.2.7c-.12,0-.16-.11-.2-.2-.09-.32.15-.31.2-.5-.51.2-.15-.46-.4-.5-.2.29-.76.19-.91.1.94.14,1.34-.7,1.81-1.31C106.06,64.73,106,65,106.32,64.88Z" transform="translate(-68.43 -33.67)" style="fill: #fff;fill-rule: evenodd"/>
    <path d="M104.92,67h-.1c-.08.3,0,.71-.31.8a.79.79,0,0,0-.2-.6c-.31.63-.93.94-1.1,1.7,0-.28.06-.65-.1-.8.61-.19.84-.76,1.3-1.1.18.06,0,.48.21.5.09-.17,0-.5.2-.6S104.93,66.89,104.92,67Z" transform="translate(-68.43 -33.67)" style="fill: #fff;fill-rule: evenodd"/>
    <path d="M103.11,73.79c.27.24.08.93.4,1.11.35-.22.32-.82.8-.9v.1c-.28.15-.21.65-.5.8,0-.17.15-.26,0-.3-.16.2-.27.46-.6.5C103.29,74.45,102.93,74.29,103.11,73.79Z" transform="translate(-68.43 -33.67)" style="fill: #fff;fill-rule: evenodd"/>
    <path d="M103.91,75.4c.08.1.48.37.2.5.07-.35-.36-.17-.1,0-.13,0-.19-.14-.4-.1a5,5,0,0,0,.2,1.8c0,.15-.12.17,0,.31-.1.4,0,.47,0,1a4.81,4.81,0,0,1-.2-3.21h.3C104,75.53,103.76,75.44,103.91,75.4Z" transform="translate(-68.43 -33.67)" style="fill: #fff;fill-rule: evenodd"/>
    <path d="M97.2,60.57a1.76,1.76,0,0,1,.9.6,2.84,2.84,0,0,0-.6.6c-.09-.24.35-.43.1-.5S97.55,60.79,97.2,60.57Z" transform="translate(-68.43 -33.67)" style="fill: #fff;fill-rule: evenodd"/>
    <path d="M105.52,79.81" transform="translate(-68.43 -33.67)" style="fill: #fff;fill-rule: evenodd"/>
    <path d="M91.89,62.27c-.1,0-.12-.08-.2-.1,0-.27.51-.09.6-.3-.12,0-.16-.11-.2-.2.15-.22.54.19.6.4a3.06,3.06,0,0,1-.7.9h-.1c0-.33.29-.44.4-.7Z" transform="translate(-68.43 -33.67)" style="fill: #fff;fill-rule: evenodd"/>
  </g>
  <g>
    <path d="M109,82c.45,0,0,.46,0,.6C108.76,82.54,109.18,82.32,109,82Z" transform="translate(-68.43 -33.67)" style="fill: #fff;fill-rule: evenodd"/>
    <path d="M100.83,83.63c.21-.24.85,0,.8.3C101.16,84,101.3,83.53,100.83,83.63Z" transform="translate(-68.43 -33.67)" style="fill: #fff;fill-rule: evenodd"/>
    <path d="M104.53,83.73c0,.18-.28.5,0,.6-.06.3-.21-.09-.4,0,.12.68.51,1.1.6,1.8a1.26,1.26,0,0,1-.6-1.1c-.49.15-.51.76-.8,1.1-.41-.18-.06-1.23.3-1.3,0,.18-.12.21-.1.4C104.05,84.8,103.82,83.74,104.53,83.73Z" transform="translate(-68.43 -33.67)" style="fill: #fff;fill-rule: evenodd"/>
    <path d="M99.93,84.23c.57.19.7.83,1.2,1.1-.32.13-.84-.52-1.2-.4C100,84.57,99.75,84.4,99.93,84.23Z" transform="translate(-68.43 -33.67)" style="fill: #fff;fill-rule: evenodd"/>
    <path d="M98.12,85.43A2.19,2.19,0,0,1,100,87C99.33,86.57,98.89,85.83,98.12,85.43Z" transform="translate(-68.43 -33.67)" style="fill: #fff;fill-rule: evenodd"/>
    <path d="M101.83,85.33c.42,0,0,.36.2.6C101.67,86,101.89,85.54,101.83,85.33Z" transform="translate(-68.43 -33.67)" style="fill: #fff;fill-rule: evenodd"/>
    <path d="M100.33,85.73c.36.3.24,1.41.4,1.6C100.35,87.33,100.21,86.31,100.33,85.73Z" transform="translate(-68.43 -33.67)" style="fill: #fff;fill-rule: evenodd"/>
    <path d="M98,85.83c.48.42.31,1.84.7,2.61-.47.62-.88-.2-1.1-.5.51-.14.39.34.7.4.08-1.09-.51-1.26-.6-2.41C97.87,85.94,98,86,98,85.83Z" transform="translate(-68.43 -33.67)" style="fill: #fff;fill-rule: evenodd"/>
    <path d="M107.43,86.23c.37.53,1.1,1.21.91,1.71C108,87.86,107.54,86.55,107.43,86.23Z" transform="translate(-68.43 -33.67)" style="fill: #fff;fill-rule: evenodd"/>
    <path d="M106.33,86.83c.13.24.64.1.6.5C106.8,87.1,106.3,87.24,106.33,86.83Z" transform="translate(-68.43 -33.67)" style="fill: #fff;fill-rule: evenodd"/>
    <path d="M102.33,87.54c-.33,0-.48-.12-.5-.41C102,87,102.29,87.26,102.33,87.54Z" transform="translate(-68.43 -33.67)" style="fill: #fff;fill-rule: evenodd"/>
    <path d="M95.32,88.24c.27.09.43.3.7.4A.43.43,0,0,1,95.32,88.24Z" transform="translate(-68.43 -33.67)" style="fill: #fff;fill-rule: evenodd"/>
    <path d="M93.72,89.24a1.69,1.69,0,0,1,1.2.4C94.65,89.58,93.65,89.79,93.72,89.24Z" transform="translate(-68.43 -33.67)" style="fill: #fff;fill-rule: evenodd"/>
    <path d="M97.42,91c.07.26.33.64.2.8-.38-.47-.82.43-1,.8C96.52,92.13,97.13,91.48,97.42,91Z" transform="translate(-68.43 -33.67)" style="fill: #fff;fill-rule: evenodd"/>
    <path d="M91.52,92.34c0,.57-.5,1.51-.6,2.3A3.26,3.26,0,0,1,91.52,92.34Z" transform="translate(-68.43 -33.67)" style="fill: #fff;fill-rule: evenodd"/>
    <path d="M93.52,92.34c.34.42.37,1.8-.3,1.7C93.34,93.49,93.4,92.89,93.52,92.34Z" transform="translate(-68.43 -33.67)" style="fill: #fff;fill-rule: evenodd"/>
    <path d="M96.42,92.74a4.3,4.3,0,0,0,.3,1.4c-.26,0-.34-.26-.4-.5-.28,0,.12.66-.3.5A3.65,3.65,0,0,1,96.42,92.74Z" transform="translate(-68.43 -33.67)" style="fill: #fff;fill-rule: evenodd"/>
    <path d="M94.92,93.94c.2.14,0,.62.2.8C94.73,94.8,95,94.19,94.92,93.94Z" transform="translate(-68.43 -33.67)" style="fill: #fff;fill-rule: evenodd"/>
    <path d="M92.72,95.64a.68.68,0,0,1,.5.1c-.06.28-.25.42-.3.71-.44-.07-.57.17-1,.09.3-.29.77-.42,1.1-.7C93.05,95.58,92.63,96.11,92.72,95.64Z" transform="translate(-68.43 -33.67)" style="fill: #fff;fill-rule: evenodd"/>
    <path d="M98.62,97.15c-.2.4-.91.29-1.3.5.11-.27.41-.33.8-.3-.09-.18-.31-.23-.6-.2C97.43,96.87,98.29,97.2,98.62,97.15Z" transform="translate(-68.43 -33.67)" style="fill: #fff;fill-rule: evenodd"/>
    <path d="M102.23,81.73c.46.17.23.41.1.7.27.07.19-.21.3-.3s.25.15.4.2c-.35.2.08.68-.3.9.15,0,.12.1.4.2-.14.18-.09.23.2.2,0,.11-.2.07-.2.2-.24-.48-.6-.25-.7-.9-.13,0-.16.18-.3.2,0,.29.41.46-.1.5,0-.08.1-.1.1-.2s-.35-.19-.3-.5c.4,0,.21-.19.5-.3A2.68,2.68,0,0,1,102.23,81.73Z" transform="translate(-68.43 -33.67)" style="fill: #fff;fill-rule: evenodd"/>
    <path d="M108.34,82.73c-.8.7-.45,1.93-.91,2.9A3,3,0,0,1,108.34,82.73Z" transform="translate(-68.43 -33.67)" style="fill: #fff;fill-rule: evenodd"/>
    <path d="M110.94,83.93c.11.25-.51,1.32-.4.5C110.61,84.2,110.87,84.16,110.94,83.93Z" transform="translate(-68.43 -33.67)" style="fill: #fff;fill-rule: evenodd"/>
    <path d="M98,85.23c0,.15-.52-.06-.6-.2C96.09,85,97.9,84.79,98,85.23Z" transform="translate(-68.43 -33.67)" style="fill: #fff;fill-rule: evenodd"/>
    <path d="M101.53,86.93A30.4,30.4,0,0,0,101,90C100.53,89.18,101,87.68,101.53,86.93Z" transform="translate(-68.43 -33.67)" style="fill: #fff;fill-rule: evenodd"/>
    <path d="M96.62,89c0,.08,0,.09-.1.1s0,.44-.1.8c-.27-.17-.14-.88-.7-1C96,88.65,96.23,89.38,96.62,89Z" transform="translate(-68.43 -33.67)" style="fill: #fff;fill-rule: evenodd"/>
    <path d="M96.22,90.24c-.33.39-.51-.21-.8-.2.29-.35.36.36.8.2" transform="translate(-68.43 -33.67)" style="fill: #fff;fill-rule: evenodd"/>
    <path d="M96.32,90.74c-.24-.29.23-.1.5-.2C96.92,91,96.26,90.5,96.32,90.74Z" transform="translate(-68.43 -33.67)" style="fill: #fff;fill-rule: evenodd"/>
    <path d="M107.33,90.64c-.31.25-.34.79-.8.9C106.76,91.2,106.94,90.81,107.33,90.64Z" transform="translate(-68.43 -33.67)" style="fill: #fff;fill-rule: evenodd"/>
    <path d="M95.92,90.84c.25.22,1-.12,1,.4a1.66,1.66,0,0,0-1.2,0C95.5,91.47,95.9,91,95.92,90.84Z" transform="translate(-68.43 -33.67)" style="fill: #fff;fill-rule: evenodd"/>
    <path d="M97.42,94.84a4.73,4.73,0,0,0-2,1.2A2.13,2.13,0,0,1,97.42,94.84Z" transform="translate(-68.43 -33.67)" style="fill: #fff;fill-rule: evenodd"/>
  </g>
  <g>
    <path d="M76.86,84.87v.7c.81-.14.61.55,1.2.6A2.9,2.9,0,0,0,76.86,84.87Z" transform="translate(-68.43 -33.67)" style="fill: #fff;fill-rule: evenodd"/>
    <path d="M74.09,88.87c.44.16-.28.15-.12.4,1.09-.47.31-1.89.6-2.9-.41.08-.15-.41-.6-.3-.22.58.17,1.07-.24,1.4.8,0,.43.51.6,1.2-.22-.15-.6-.16-.48-.6-.29,0-.26.18-.6.1a1.07,1.07,0,0,1,.48,1C74,89.2,73.86,88.88,74.09,88.87Z" transform="translate(-68.43 -33.67)" style="fill: #fff;fill-rule: evenodd"/>
    <path d="M75.29,86.17c0,.42.79,1.12,1.09,1.4C76.63,87,75.76,86.5,75.29,86.17Z" transform="translate(-68.43 -33.67)" style="fill: #fff;fill-rule: evenodd"/>
    <path d="M77.34,86.37c-.48-.09.1.5-.48.5-.06.32.21.35.12.7C77.58,87.47,77.18,87,77.34,86.37Z" transform="translate(-68.43 -33.67)" style="fill: #fff;fill-rule: evenodd"/>
    <path d="M72.4,87.77a1.27,1.27,0,0,0,.85.3C73.1,87.86,72.63,87.61,72.4,87.77Z" transform="translate(-68.43 -33.67)" style="fill: #fff;fill-rule: evenodd"/>
    <path d="M70.48,90.88a2.3,2.3,0,0,0,1.2.2A1.33,1.33,0,0,0,70.48,90.88Z" transform="translate(-68.43 -33.67)" style="fill: #fff;fill-rule: evenodd"/>
    <path d="M78.54,87.37a5.32,5.32,0,0,0-1.68,3.41c.5-.16.25-.6.36-.91C77.56,88.91,78.4,88.08,78.54,87.37Z" transform="translate(-68.43 -33.67)" style="fill: #fff;fill-rule: evenodd"/>
    <path d="M71.68,88.67c-.3,0,0,.34,0,.4-.35-.14-.67-.37-.48-.7-.25-.09-.36-.3-.72-.3.15.69,1.24,1,.84,1.8.48.1.05-.56.48-.5C71.4,89.18,72,89,71.68,88.67Z" transform="translate(-68.43 -33.67)" style="fill: #fff;fill-rule: evenodd"/>
    <path d="M68.43,88.77c.2.2,0,.13,0,.4.68-.19.81,0,1.33.3C69.75,89.05,69,89,68.43,88.77Z" transform="translate(-68.43 -33.67)" style="fill: #fff;fill-rule: evenodd"/>
    <path d="M76.13,89.07c-.35-.32-.65-.13-1.2,0A4.82,4.82,0,0,0,76.13,89.07Z" transform="translate(-68.43 -33.67)" style="fill: #fff;fill-rule: evenodd"/>
    <path d="M75.17,91.88c-.25-.27-.57.25-1,.2C74.48,92.36,74.83,91.87,75.17,91.88Z" transform="translate(-68.43 -33.67)" style="fill: #fff;fill-rule: evenodd"/>
  </g>
  <g>
    <path d="M91.33,78.86c.29.15.35.52.41.9C91.55,79.45,91.16,79.34,91.33,78.86Z" transform="translate(-68.43 -33.67)" style="fill: #fff;fill-rule: evenodd"/>
    <path d="M86.43,83c.18,0,.5.28.6,0C87.42,83.31,86.38,83.39,86.43,83Z" transform="translate(-68.43 -33.67)" style="fill: #fff;fill-rule: evenodd"/>
    <path d="M84.13,88.47c-.17.2,0,.13,0,.41-.12,0-.18,0-.2-.1C83.71,89.46,83.42,88.3,84.13,88.47Z" transform="translate(-68.43 -33.67)" style="fill: #fff;fill-rule: evenodd"/>
    <path d="M73.81,93a1.12,1.12,0,0,1-.8.6c.18-.5-.34.13-.7,0C72.69,93.23,73.18,92.78,73.81,93Z" transform="translate(-68.43 -33.67)" style="fill: #fff;fill-rule: evenodd"/>
    <path d="M72.21,93.88c-.16.17-.54.43-.8.2C71.68,94,72.05,93.75,72.21,93.88Z" transform="translate(-68.43 -33.67)" style="fill: #fff;fill-rule: evenodd"/>
    <path d="M93.34,98.29c-.08.36.24.55,0,.8,0-.56-.5-.64-.9-.8-.1.23.45.74.7.7-.17.4-.34.8-1,.7.07-.69-.31-.32-.6-.6-.24,0,0,.27.2.2-.34.22-1.17.09-1.11-.4-.25.49-.38.68-.7,1.3-.47,0-.65-.22-1-.3a6.4,6.4,0,0,1-.7.3,2.5,2.5,0,0,0-2.1.1c-1-.51-4.75,1-4.81-1.2a8.82,8.82,0,0,1-2.7.7c-1-1.11-2.54-.5-3.8,0-.16-.1-.41-.1-.2-.3-1.19.79-4.32.24-5-1.2.13-.54-.41-1,.2-1.71-.5-.67.73-2,1.6-2.3,0,.33-.42.31-.6.5.15.12.32.38,0,.4,0,.24.46-.05.3.3-.4-.13-.2.33-.6.2,0,.16,0,.38-.1.4a3.65,3.65,0,0,0,.9.7c-.35.32.44.58-.1.71.58,0,.93.3,1.5.7.15,0,0-.13,0-.3.39-.1.64.16.4.4.39-.17.47,0,.7-.3,0,.35.52.22.61.5a1.18,1.18,0,0,1,1.2-.5c0-.12,0-.18.1-.2s-.1-.06-.1,0c-.19-.23.24-.39,0-.81a4,4,0,0,1-.7.31,14.13,14.13,0,0,0-1.41-.21c-1,0-2.34-1.71-1.2-2.1q-.09.39.3.3c.13-.25.32-1.09.9-1.2-.05.34.17.25.3.6.14-.33.28-.66.4-1,.09.06.18.12.21,0,.67.92-.34,2.1-1,2.6-.12.39.76.63.8.2a1,1,0,0,0,.71.6q.31,0,.3-.3c.8.24,1.6-.52,2.3.4a.51.51,0,0,1,.3-.1c.23,0,.11-.29.3-.3a25.54,25.54,0,0,1,0-6.3c-.15-.24,0-.43-.1-.5.16-.12.27-.45.5-.2,0-.22-.14-.19-.3-.2.17-.24.56-.25.5-.7.57.38.27-.56.8-.5-.39-.27.47-.64.7-.91.11.27-.35.61-.1.4-.06.32-1.25,1-.6,1.51.1.3-.22.17-.4.2.09.14.15.31.4.3.07-.27.39-.28.4-.6.56.39-.57.55-.3,1.3.18-.19.29-.45.7-.4-.1.21-.44.44-.2.7.44-.42.45-1.39,1-1-.06.3-.21-.1-.4,0,0,.16.1.17.1.3.54-.13.59-.75.9-1.1a5.88,5.88,0,0,0,1.51-.1c.24-.06.22-.38.3-.6a1.64,1.64,0,0,1-.7.5,1.19,1.19,0,0,1,.6-1c.25.49.62-.08.9.1,0-.47-.57-.27-.8-.2.08-.34.18-.68.6-.7q0-.33-.3-.3a9.16,9.16,0,0,0,.9-1.2c.19,0,.07.33.3.3s.11-.29.3-.3c0-.13-.25-.08-.4-.1.1-.33.17-.29.4-.1,0-.23,0-.37-.2-.4.38-.26.45-.82,1.1-.8.14,0,0-.18-.1-.2a.4.4,0,0,1,.6-.1c0,.12-.18.08-.3.1.49.36.18-.33.5-.4-.08-.09-.56,0-.8-.2.27-.45-.11-.64-.4-.8-.09.32.33.14.3.4s-.2-.24-.5,0c0,.18.34.06.4.2s-.27.13-.2.4c-.18-.14-.48-.41-.3-.6-.22-.07-.32.28-.3-.1-.21.18,0,.37-.4.2.1.2.44.16.4.5a4.93,4.93,0,0,1-1.4.6c.08-.2-.09-.62-.2-.3,1.41-1.46,1.07-4.29.4-6.61-.6,0-.74.35-1.31.1a12.57,12.57,0,0,1,1.31-.3,2.66,2.66,0,0,1,.3-1.3c-.57,0-1.23.78-1.51,1.4-.07-.74.84-1.36,1.51-1.7.5-.45.52-1,1-1.5s.86-.38,1.2-.7c.83-.78,1-1.92,1.5-3.11.17.31.15,0,.3,0a1.75,1.75,0,0,1,1.6,2.21c-.41.15-.29.84-.5,1.2a2.65,2.65,0,0,0,.9-1.8c.15-.16.53-.08.5-.4,2,1-.4,3.36-.2,5.3.19,1.72,2.16,2.24,1.21,4a2.63,2.63,0,0,1-.11,1.5.45.45,0,0,1-.19-.4c-.23.14,0,.69-.11,1h-.4c.14.12.2.53-.2.4,0,.4.55,1.51-.2,1.8.52,2.33-.8,4.9-.3,7.31.24,1.11.57,2.33.9,3.4S92,98.09,93.34,98.29Zm-4.81-27a1.77,1.77,0,0,1,.9.11c0,.23-.45-.06-.3.3.32-.06.31.18.5,0,.06-.62-.42-.72-.6-1.11C88.6,70.46,88.25,71,88.53,71.25Zm-.9.3c.19.34-.45.33-.1.51.33-.11.94-.46.8-.7C88.23,71.56,88,71.57,87.63,71.55Zm.3,2.21c0-.12.18-.23,0-.3a.79.79,0,0,1-.2.3v-.4h-.5c-.21.6.3.67-.2,1.2.78-.3,0,.41.7.1,0,.1.08.12.1.2,0,.42-.29.57-.5.8.23.23.13.81.3,1.1,0-.06,0-.12.1-.1s.12,0,.1-.1a.28.28,0,0,1-.2-.3c.19,0,.22-.11.4-.1-.17-.37,0-.2.2-.4a2.17,2.17,0,0,1,.4-1.5c-.25-.13-.31.39-.4.1.2-.07.07-.47.3-.5,1.45-.34-.36-.06-.5.1C88.17,74,88.14,73.7,87.93,73.76Zm-1.5.4c0,.48,0,.55,0,.9C86.48,74.47,87.45,73.61,86.43,74.16Zm-1.1.7c0-.71.45-.35.3-.8C85.45,74.23,84.87,74.67,85.33,74.86Zm4-.4c-.12,0-.23,0-.2.2h.3c-.08-.28.14-.26.1-.5h-.3A.51.51,0,0,0,89.33,74.46Zm-3.2,1c.52.13.21.5.9.5a1.69,1.69,0,0,0-.5-.8C86.5,75.37,86.09,75.18,86.13,75.46Zm-.4,1c0,.15-.12.52.1.5.11-.24.67-.7.3-.8C86.22,76.48,85.8,76.3,85.73,76.46ZM87,83c-.1.28-.42,0-.6,0C86.38,83.39,87.42,83.31,87,83Zm-2.9.9c.34-.08.8-.45.4-.7C84.62,83.44,84.06,83.72,84.13,83.87Zm-.2,4.91c0,.07.08.11.2.1,0-.28-.17-.21,0-.41C83.42,88.3,83.71,89.46,83.93,88.78Zm-5.11,2.8c.2.17.13,0,.4,0,.07-.31-.17-.3-.1-.6.08,0,.2,0,.2-.1C78.78,90.92,79.08,91.22,78.82,91.58Zm.6.2c.12,0,.2.66.4.3-.06,0-.12,0-.1-.1s.2,0,.2-.1,0-.23-.2-.4c.12,0,.29,0,.3-.1a.72.72,0,0,1-.3-.2c.06,0,.12-.08,0-.1C79.45,91.32,79.72,91.52,79.42,91.78Zm9.61.4c.63-.06.39.74.8.9.11-.68.07.62.2.2.18-.77-.41-1.22-.2-1.7-.27.1-.51-.43-.7-.3C89.45,91.53,89.08,92,89,92.18Zm.1-.4c-.08,0-.11-.09-.1-.2h-.4C88.63,92,89,91.88,89.13,91.78Zm-3.8.2a5.89,5.89,0,0,1,1.5,1.4,12.58,12.58,0,0,0-.2-1.7A12.37,12.37,0,0,1,85.33,92Zm3.4,2.2c-.43,0,0,.72.1.8a3.23,3.23,0,0,0,.5,2.71c.19-.18-.13-.31.2-.4a2.14,2.14,0,0,1,.6.6c-.78-1.86-.72-3.82-1.9-5.51C88.45,92.92,88.25,93.9,88.73,94.18Zm-3.4,4.51c.27-.07.79.12.9-.1C85.93,98.59,85.43,98.29,85.33,98.69Zm2.6-.3c-.75-.44-.3-2.07-.8-2.51.06.26.21-1.19-.3-1.6.08.88-.35,1.25-.3,2.1.44,0-.91,1.43-.9,2C86,98.22,87,98.87,87.93,98.39Zm2.8-.1c.44-.2.6.32.6.6a.86.86,0,0,0,.61-.2c-.61-.3-1-2.25-.9-2.41-.16,0-.35,0-.31-.2.12,0,.23.18.31,0-.12-.31-.26,0-.41-.2,0-.11.16-.11.3-.1,0-.15,0-.37-.1-.4.11.34-.13.33-.4.3-.09-.42-.24-1-.6-1m-.6,4.11c.26-.19.69.3,1.1.3.15-.59-.37-.62,0-.9-.11,0-.28,0-.3-.1s.12-.09,0-.1c-.11.21,0,.37-.3.5.13-.35-.06-.32-.1-.5-.15.42-.3-.48-.4-.1C89.54,98,89,98.51,89.23,98.79Zm-5.1.5a1.87,1.87,0,0,0-1.3.5c.31-.44-.64-.33-.61-.8.41.16.57,0,1,.1,0-.22-.55-.13-.2-.6a.67.67,0,0,1-.41-.1c.06.64-.79.3-.8.5q.39-.09.3.3c-.19,0-.12-.28-.4-.2,0,.27.4.48,0,.3,0,.43.32.29,0,.6.82.48,1.56-.06,2.31.1,0-.5-.45,0-.5-.4h.6v.3h.4C84.47,99.25,84,99.66,84.13,99.29Zm1.9.1c.3-.21.71.2.9-.2.18.2.37,0,.2.4.33-.12.62.3.8,0-.14-.15.23-.81-.2-.6C87.81,99,86.43,98.85,86,99.39Z" transform="translate(-68.43 -33.67)" style="fill: #fff;fill-rule: evenodd"/>
    <path d="M85.63,74.06c.15.45-.32.09-.3.8C84.87,74.67,85.45,74.23,85.63,74.06Z" transform="translate(-68.43 -33.67)" style="fill: #fff;fill-rule: evenodd"/>
    <path d="M84.53,83.17c.4.25-.06.62-.4.7C84.06,83.72,84.62,83.44,84.53,83.17Z" transform="translate(-68.43 -33.67)" style="fill: #fff;fill-rule: evenodd"/>
    <path d="M83.43,84.07c.19,0,.12.27.4.2a2.13,2.13,0,0,1-1.61,1c.18-.18.36-.54.5-.2C82.81,84.59,83.21,84.42,83.43,84.07Z" transform="translate(-68.43 -33.67)" style="fill: #fff;fill-rule: evenodd"/>
    <path d="M82.42,85.47c-.14.3-.22.09-.6.2.24.39.06.12,0,.6-.2-.11-.47.16-.2.2,0,.3-.77-.21-.5.1C80.56,86.71,81.81,85.29,82.42,85.47Z" transform="translate(-68.43 -33.67)" style="fill: #fff;fill-rule: evenodd"/>
  </g>
</svg>
