<svg xmlns="http://www.w3.org/2000/svg" viewBox="0 0 190.704 27.016">
  <defs>
    <style>
      .cls-1 {
        fill: #ec4e00;
      }
    </style>
  </defs>
  <g id="Group_38" data-name="Group 38" transform="translate(-805.257 -2620.109)">
    <g id="Group_35" data-name="Group 35" transform="translate(6)">
      <path id="Path_17" data-name="Path 17" class="cls-1" d="M2696.666,2821.109l-4.4,9.915-11.164,1.188,8.7,5.264-2.761,10.649,9.629-6.9,10.277,6.9-4.022-10.649,8.881-5.264-11-1.188Z" transform="translate(-1881.841 -201)"/>
      <path id="Path_18" data-name="Path 18" class="cls-1" d="M2696.666,2821.109l-4.4,9.915-11.164,1.188,8.7,5.264-2.761,10.649,9.629-6.9,10.277,6.9-4.022-10.649,8.881-5.264-11-1.188Z" transform="translate(-1842.841 -201)"/>
    </g>
    <g id="Group_36" data-name="Group 36" transform="translate(86)">
      <path id="Path_17-2" data-name="Path 17" class="cls-1" d="M2696.666,2821.109l-4.4,9.915-11.164,1.188,8.7,5.264-2.761,10.649,9.629-6.9,10.277,6.9-4.022-10.649,8.881-5.264-11-1.188Z" transform="translate(-1881.841 -201)"/>
      <path id="Path_18-2" data-name="Path 18" class="cls-1" d="M2696.666,2821.109l-4.431,10.24-11.137.862,8.7,5.264-2.761,10.649,9.629-6.9,10.277,6.9-4.022-10.649,8.881-5.264-11.372-.862Z" transform="translate(-1842.841 -201)"/>
    </g>
    <g id="Group_37" data-name="Group 37" transform="translate(166)">
      <path id="Path_17-3" data-name="Path 17" class="cls-1" d="M2696.666,2821.109l-4.4,9.915-11.164,1.188,8.7,5.264-2.761,10.649,9.629-6.9,10.277,6.9-4.022-10.649,8.881-5.264-11-1.188Z" transform="translate(-1881.841 -201)"/>
    </g>
  </g>
</svg>
